<svg width="535" height="594" viewBox="0 0 535 594" fill="none" xmlns="http://www.w3.org/2000/svg">
<g filter="url(#filter0_di)">
<path d="M365.417 525C381.203 525 393.946 511.203 384.447 498.595C378.14 490.223 368.896 482.617 357.242 476.21C345.588 469.802 331.753 464.72 316.527 461.252C301.3 457.785 284.981 456 268.5 456C252.019 456 235.7 457.785 220.473 461.252C205.247 464.72 191.412 469.802 179.758 476.21C168.104 482.617 158.86 490.223 152.553 498.595C143.054 511.203 155.797 525 171.583 525L268.5 525H365.417Z" fill="url(#paint0_linear)"/>
<ellipse cx="268.763" cy="479.5" rx="95.5" ry="25.5" fill="url(#paint1_diamond)"/>
<path d="M168.763 337C166.821 219.05 71.6625 217.287 76.1488 256.663C71.358 315.521 125.255 418.44 206.966 482.263" stroke="#C38240" stroke-width="20"/>
<path d="M367.117 337C369.059 219.05 464.217 217.287 459.731 256.663C464.522 315.521 410.625 418.44 328.914 482.263" stroke="#C38240" stroke-width="20"/>
<g filter="url(#filter1_i)">
<path d="M150 249.429C150 196.725 192.725 154 245.429 154H292.571C345.275 154 388 196.725 388 249.429V369C388 434.722 334.722 488 269 488V488C203.278 488 150 434.722 150 369V249.429Z" fill="#EFEDE4"/>
</g>
<g filter="url(#filter2_d)">
<path d="M265.977 424.562C289.301 411.011 307.259 407.216 325.702 389.862C328.514 384.221 330.591 378.999 332.089 374.082C341.085 344.575 329.295 326.05 331.103 293.941C309.947 311.833 320.322 332.803 303.68 348.943C297.787 354.658 265.32 340.792 257.747 355.981C250.175 371.169 262.763 397.78 265.977 424.562Z" fill="#D0D33E"/>
<path d="M265.977 424.562C289.301 411.011 307.259 407.216 325.702 389.862C328.514 384.221 330.591 378.999 332.089 374.082C341.085 344.575 329.295 326.05 331.103 293.941C309.947 311.833 320.322 332.803 303.68 348.943C297.787 354.658 265.32 340.792 257.747 355.981C250.175 371.169 262.763 397.78 265.977 424.562Z" fill="url(#paint2_linear)"/>
</g>
<g filter="url(#filter3_d)">
<path d="M281.272 410.369C283.612 391.811 281.67 380.424 287.264 362.849C289.805 358.86 292.277 355.453 294.708 352.493C309.3 334.724 322.423 333.015 340.115 318.003C334.835 337.284 335.6 350.027 330.283 366.096C328.4 371.787 325.754 377.894 321.808 384.856C306.874 399.501 297.102 400.405 281.272 410.369Z" fill="#D0D33E"/>
<path d="M281.272 410.369C283.612 391.811 281.67 380.424 287.264 362.849C289.805 358.86 292.277 355.453 294.708 352.493C309.3 334.724 322.423 333.015 340.115 318.003C334.835 337.284 335.6 350.027 330.283 366.096C328.4 371.787 325.754 377.894 321.808 384.856C306.874 399.501 297.102 400.405 281.272 410.369Z" fill="url(#paint3_linear)"/>
<path d="M296.104 402.001C291.668 404.197 286.972 406.521 281.585 409.878C282.359 403.567 282.645 398.075 282.916 392.884C283.033 390.633 283.147 388.438 283.297 386.258C283.802 378.915 284.711 371.704 287.492 362.956C290.022 358.986 292.483 355.597 294.902 352.651C302.173 343.797 309.076 338.944 316.381 334.427C317.695 333.614 319.022 332.812 320.368 331.999C326.33 328.397 332.641 324.584 339.665 318.71C337.293 327.56 336.181 335.039 335.13 342.111C335.075 342.481 335.021 342.849 334.966 343.217C333.833 350.821 332.697 358.006 330.046 366.018C328.171 371.683 325.537 377.766 321.607 384.702C314.173 391.988 308.025 395.857 301.76 399.146C299.9 400.123 298.027 401.05 296.104 402.001Z" stroke="black" stroke-opacity="0.1" stroke-width="0.5"/>
</g>
<g filter="url(#filter4_d)">
<path d="M267.5 432C243.483 397.725 220.192 380.372 206 344.233C206 334.646 206.765 326.129 208.146 318.419C216.433 272.149 246.913 254.933 267.5 210C285.237 248.713 307.737 269.666 320.197 302.93C324.61 314.709 327.763 328.031 329 344.233C314.808 385.535 291.517 397.725 267.5 432Z" fill="#D0D33E"/>
<path d="M267.5 432C243.483 397.725 220.192 380.372 206 344.233C206 334.646 206.765 326.129 208.146 318.419C216.433 272.149 246.913 254.933 267.5 210C285.237 248.713 307.737 269.666 320.197 302.93C324.61 314.709 327.763 328.031 329 344.233C314.808 385.535 291.517 397.725 267.5 432Z" fill="url(#paint4_linear)"/>
<path d="M292.012 401.647C284.175 410.392 275.88 419.648 267.5 431.565C259.123 419.641 250.833 409.757 242.996 400.415C239.659 396.437 236.404 392.556 233.26 388.658C222.678 375.539 213.331 362.199 206.25 344.185C206.253 334.631 207.016 326.144 208.392 318.463C212.526 295.381 222.193 279.546 233.414 263.854C235.433 261.03 237.503 258.211 239.599 255.354C249.07 242.454 259.094 228.798 267.5 210.598C275.892 228.802 285.33 243.081 294.251 256.576C294.708 257.268 295.164 257.958 295.619 258.646C305.019 272.882 313.744 286.415 319.963 303.018C324.362 314.762 327.509 328.045 328.747 344.2C321.666 364.785 312.321 378.12 301.744 390.59C298.602 394.293 295.348 397.924 292.012 401.647Z" stroke="black" stroke-opacity="0.1" stroke-width="0.5"/>
</g>
<g filter="url(#filter5_d)">
<path d="M254.018 332.387C261.239 339.602 267.568 342.784 272.508 350.863C272.914 353.166 273.091 355.244 273.085 357.155C273.055 368.62 266.462 374.046 263.421 385.71C257.521 377.163 251.229 373.083 246.827 365.621C245.268 362.978 243.947 359.912 242.963 356.073C244.623 345.551 249.701 341.637 254.018 332.387Z" fill="#D0D33E"/>
<path d="M254.018 332.387C261.239 339.602 267.568 342.784 272.508 350.863C272.914 353.166 273.091 355.244 273.085 357.155C273.055 368.62 266.462 374.046 263.421 385.71C257.521 377.163 251.229 373.083 246.827 365.621C245.268 362.978 243.947 359.912 242.963 356.073C244.623 345.551 249.701 341.637 254.018 332.387Z" fill="url(#paint5_linear)"/>
<path d="M249.571 340.825C251.047 338.45 252.614 335.93 254.093 332.814C256.548 335.242 258.904 337.22 261.127 339.086C262.095 339.899 263.039 340.691 263.954 341.489C267.036 344.179 269.824 346.966 272.27 350.953C272.667 353.224 272.841 355.272 272.835 357.154C272.82 362.832 271.182 367.015 269.157 371.25C268.793 372.01 268.416 372.772 268.034 373.546C266.353 376.95 264.568 380.565 263.318 385.126C260.596 381.261 257.8 378.311 255.161 375.528C255.022 375.38 254.882 375.233 254.744 375.087C251.882 372.065 249.227 369.198 247.042 365.494C245.503 362.884 244.195 359.854 243.218 356.061C244.045 350.867 245.71 347.3 247.71 343.879C248.303 342.864 248.928 341.859 249.571 340.825Z" stroke="black" stroke-opacity="0.1" stroke-width="0.5"/>
</g>
<g filter="url(#filter6_d)">
<path d="M248.726 375.566C239.975 370.312 233.064 368.756 226.316 362.111C225.365 359.975 224.691 358.002 224.234 356.147C221.49 345.015 226.574 338.155 226.703 326.101C234.496 332.967 241.588 335.404 247.664 341.58C249.816 343.766 251.84 346.422 253.723 349.909C254.658 360.52 250.678 365.546 248.726 375.566Z" fill="#D0D33E"/>
<path d="M248.726 375.566C239.975 370.312 233.064 368.756 226.316 362.111C225.365 359.975 224.691 358.002 224.234 356.147C221.49 345.015 226.574 338.155 226.703 326.101C234.496 332.967 241.588 335.404 247.664 341.58C249.816 343.766 251.84 346.422 253.723 349.909C254.658 360.52 250.678 365.546 248.726 375.566Z" fill="url(#paint6_linear)"/>
<path d="M251.001 366.302C250.143 368.964 249.232 371.789 248.55 375.17C245.581 373.407 242.817 372.058 240.208 370.786C239.072 370.231 237.965 369.691 236.884 369.137C233.242 367.273 229.863 365.244 226.526 361.966C225.59 359.859 224.927 357.914 224.476 356.087C223.118 350.574 223.695 346.119 224.636 341.52C224.805 340.694 224.986 339.863 225.169 339.02C225.977 335.311 226.835 331.372 226.944 326.643C230.52 329.735 233.947 331.921 237.18 333.983C237.352 334.092 237.522 334.201 237.693 334.31C241.2 336.55 244.47 338.69 247.486 341.755C249.611 343.915 251.613 346.538 253.478 349.983C253.933 355.222 253.18 359.086 252.067 362.889C251.737 364.017 251.374 365.144 251.001 366.302Z" stroke="black" stroke-opacity="0.1" stroke-width="0.5"/>
</g>
<g filter="url(#filter7_d)">
<path d="M263.103 424.562C239.779 411.011 221.821 407.216 203.378 389.862C200.566 384.221 198.49 378.999 196.991 374.082C187.996 344.575 198.799 317.609 196.991 285.5C218.147 303.392 209.858 325.86 226.5 342C232.393 347.715 263.76 340.792 271.333 355.981C278.906 371.169 266.317 397.78 263.103 424.562Z" fill="#D0D33E"/>
<path d="M263.103 424.562C239.779 411.011 221.821 407.216 203.378 389.862C200.566 384.221 198.49 378.999 196.991 374.082C187.996 344.575 198.799 317.609 196.991 285.5C218.147 303.392 209.858 325.86 226.5 342C232.393 347.715 263.76 340.792 271.333 355.981C278.906 371.169 266.317 397.78 263.103 424.562Z" fill="url(#paint7_linear)"/>
</g>
<ellipse cx="268.763" cy="169" rx="112.5" ry="26" fill="url(#paint8_radial)"/>
<path d="M210.349 118.794C240.558 100.642 291.174 100.164 327.687 118.794C352.366 131.386 354.263 175 354.263 175H183.263C183.263 175 186.881 132.895 210.349 118.794Z" fill="url(#paint9_linear)"/>
<ellipse cx="269.263" cy="108.5" rx="20" ry="13.5" fill="#C38240" stroke="#C38240"/>
<path d="M234.297 143C234.297 143 220.72 100.723 234.297 82.2343C251.172 59.2552 286.353 59.2552 303.228 82.2343C316.806 100.723 303.228 143 303.228 143" stroke="#C38240" stroke-width="10"/>
<path d="M368.309 176.723C302.701 292.709 324.263 386 200.309 473.723" stroke="#C38240" stroke-width="7"/>
<path d="M168.338 176.723C233.946 292.709 212.384 386 336.338 473.723" stroke="#C38240" stroke-width="7"/>
</g>
<defs>
<filter id="filter0_di" x="0.932648" y="0" width="534.015" height="585" filterUnits="userSpaceOnUse" color-interpolation-filters="sRGB">
<feFlood flood-opacity="0" result="BackgroundImageFix"/>
<feColorMatrix in="SourceAlpha" type="matrix" values="0 0 0 0 0 0 0 0 0 0 0 0 0 0 0 0 0 0 127 0"/>
<feOffset/>
<feGaussianBlur stdDeviation="30"/>
<feColorMatrix type="matrix" values="0 0 0 0 0 0 0 0 0 0 0 0 0 0 0 0 0 0 0.5 0"/>
<feBlend mode="normal" in2="BackgroundImageFix" result="effect1_dropShadow"/>
<feBlend mode="normal" in="SourceGraphic" in2="effect1_dropShadow" result="shape"/>
<feColorMatrix in="SourceAlpha" type="matrix" values="0 0 0 0 0 0 0 0 0 0 0 0 0 0 0 0 0 0 127 0" result="hardAlpha"/>
<feOffset dy="4"/>
<feGaussianBlur stdDeviation="30"/>
<feComposite in2="hardAlpha" operator="arithmetic" k2="-1" k3="1"/>
<feColorMatrix type="matrix" values="0 0 0 0 0.908333 0 0 0 0 0.609745 0 0 0 0 0.306562 0 0 0 0.5 0"/>
<feBlend mode="normal" in2="shape" result="effect2_innerShadow"/>
</filter>
<filter id="filter1_i" x="150" y="154" width="238" height="334" filterUnits="userSpaceOnUse" color-interpolation-filters="sRGB">
<feFlood flood-opacity="0" result="BackgroundImageFix"/>
<feBlend mode="normal" in="SourceGraphic" in2="BackgroundImageFix" result="shape"/>
<feColorMatrix in="SourceAlpha" type="matrix" values="0 0 0 0 0 0 0 0 0 0 0 0 0 0 0 0 0 0 127 0" result="hardAlpha"/>
<feOffset/>
<feGaussianBlur stdDeviation="25"/>
<feComposite in2="hardAlpha" operator="arithmetic" k2="-1" k3="1"/>
<feColorMatrix type="matrix" values="0 0 0 0 0 0 0 0 0 0 0 0 0 0 0 0 0 0 0.49 0"/>
<feBlend mode="normal" in2="shape" result="effect1_innerShadow"/>
</filter>
<filter id="filter2_d" x="226" y="277" width="149.081" height="180.503" filterUnits="userSpaceOnUse" color-interpolation-filters="sRGB">
<feFlood flood-opacity="0" result="BackgroundImageFix"/>
<feColorMatrix in="SourceAlpha" type="matrix" values="0 0 0 0 0 0 0 0 0 0 0 0 0 0 0 0 0 0 127 0"/>
<feOffset dx="2" dy="8"/>
<feGaussianBlur stdDeviation="4"/>
<feColorMatrix type="matrix" values="0 0 0 0 0.1875 0 0 0 0 0.128438 0 0 0 0 0.103125 0 0 0 0.39 0"/>
<feBlend mode="normal" in2="BackgroundImageFix" result="effect1_dropShadow"/>
<feBlend mode="normal" in="SourceGraphic" in2="effect1_dropShadow" result="shape"/>
</filter>
<filter id="filter3_d" x="258" y="307" width="109.387" height="130.372" filterUnits="userSpaceOnUse" color-interpolation-filters="sRGB">
<feFlood flood-opacity="0" result="BackgroundImageFix"/>
<feColorMatrix in="SourceAlpha" type="matrix" values="0 0 0 0 0 0 0 0 0 0 0 0 0 0 0 0 0 0 127 0"/>
<feOffset dx="2" dy="8"/>
<feGaussianBlur stdDeviation="4"/>
<feColorMatrix type="matrix" values="0 0 0 0 0.1875 0 0 0 0 0.128438 0 0 0 0 0.103125 0 0 0 0.39 0"/>
<feBlend mode="normal" in2="BackgroundImageFix" result="effect1_dropShadow"/>
<feBlend mode="normal" in="SourceGraphic" in2="effect1_dropShadow" result="shape"/>
</filter>
<filter id="filter4_d" x="200" y="210" width="139" height="238" filterUnits="userSpaceOnUse" color-interpolation-filters="sRGB">
<feFlood flood-opacity="0" result="BackgroundImageFix"/>
<feColorMatrix in="SourceAlpha" type="matrix" values="0 0 0 0 0 0 0 0 0 0 0 0 0 0 0 0 0 0 127 0"/>
<feOffset dx="2" dy="8"/>
<feGaussianBlur stdDeviation="4"/>
<feColorMatrix type="matrix" values="0 0 0 0 0.1875 0 0 0 0 0.128438 0 0 0 0 0.103125 0 0 0 0.39 0"/>
<feBlend mode="normal" in2="BackgroundImageFix" result="effect1_dropShadow"/>
<feBlend mode="normal" in="SourceGraphic" in2="effect1_dropShadow" result="shape"/>
</filter>
<filter id="filter5_d" x="233.246" y="329.782" width="54.9466" height="74.5332" filterUnits="userSpaceOnUse" color-interpolation-filters="sRGB">
<feFlood flood-opacity="0" result="BackgroundImageFix"/>
<feColorMatrix in="SourceAlpha" type="matrix" values="0 0 0 0 0 0 0 0 0 0 0 0 0 0 0 0 0 0 127 0"/>
<feOffset dx="2" dy="8"/>
<feGaussianBlur stdDeviation="4"/>
<feColorMatrix type="matrix" values="0 0 0 0 0.1875 0 0 0 0 0.128438 0 0 0 0 0.103125 0 0 0 0.39 0"/>
<feBlend mode="normal" in2="BackgroundImageFix" result="effect1_dropShadow"/>
<feBlend mode="normal" in="SourceGraphic" in2="effect1_dropShadow" result="shape"/>
</filter>
<filter id="filter6_d" x="207" y="320" width="65.4297" height="77.6672" filterUnits="userSpaceOnUse" color-interpolation-filters="sRGB">
<feFlood flood-opacity="0" result="BackgroundImageFix"/>
<feColorMatrix in="SourceAlpha" type="matrix" values="0 0 0 0 0 0 0 0 0 0 0 0 0 0 0 0 0 0 127 0"/>
<feOffset dx="2" dy="8"/>
<feGaussianBlur stdDeviation="4"/>
<feColorMatrix type="matrix" values="0 0 0 0 0.1875 0 0 0 0 0.128438 0 0 0 0 0.103125 0 0 0 0.39 0"/>
<feBlend mode="normal" in2="BackgroundImageFix" result="effect1_dropShadow"/>
<feBlend mode="normal" in="SourceGraphic" in2="effect1_dropShadow" result="shape"/>
</filter>
<filter id="filter7_d" x="154.433" y="269.846" width="152.647" height="187.657" filterUnits="userSpaceOnUse" color-interpolation-filters="sRGB">
<feFlood flood-opacity="0" result="BackgroundImageFix"/>
<feColorMatrix in="SourceAlpha" type="matrix" values="0 0 0 0 0 0 0 0 0 0 0 0 0 0 0 0 0 0 127 0"/>
<feOffset dx="2" dy="8"/>
<feGaussianBlur stdDeviation="4"/>
<feColorMatrix type="matrix" values="0 0 0 0 0.1875 0 0 0 0 0.128438 0 0 0 0 0.103125 0 0 0 0.39 0"/>
<feBlend mode="normal" in2="BackgroundImageFix" result="effect1_dropShadow"/>
<feBlend mode="normal" in="SourceGraphic" in2="effect1_dropShadow" result="shape"/>
</filter>
<linearGradient id="paint0_linear" x1="268.5" y1="456" x2="268.5" y2="594" gradientUnits="userSpaceOnUse">
<stop offset="0.132692" stop-color="#F0A85E"/>
<stop offset="0.445365" stop-color="#C38240"/>
</linearGradient>
<radialGradient id="paint1_diamond" cx="0" cy="0" r="1" gradientUnits="userSpaceOnUse" gradientTransform="translate(268.763 479.5) rotate(90) scale(25.5 95.5)">
<stop stop-color="#D66700" stop-opacity="0.57"/>
<stop offset="1" stop-color="#C38240"/>
</radialGradient>
<linearGradient id="paint2_linear" x1="295.826" y1="305.133" x2="272.975" y2="425.887" gradientUnits="userSpaceOnUse">
<stop stop-color="#F5E33E" stop-opacity="0.61"/>
<stop offset="1" stop-color="#D13817"/>
</linearGradient>
<linearGradient id="paint3_linear" x1="341.821" y1="342.006" x2="269.705" y2="394.468" gradientUnits="userSpaceOnUse">
<stop stop-color="#F5E33E" stop-opacity="0.61"/>
<stop offset="1" stop-color="#D13817"/>
</linearGradient>
<linearGradient id="paint4_linear" x1="310.55" y1="249.176" x2="262.385" y2="430.642" gradientUnits="userSpaceOnUse">
<stop stop-color="#F5E33E" stop-opacity="0.61"/>
<stop offset="1" stop-color="#D13817"/>
</linearGradient>
<linearGradient id="paint5_linear" x1="251.421" y1="378.124" x2="255.304" y2="332.496" gradientUnits="userSpaceOnUse">
<stop stop-color="#F5E33E" stop-opacity="0.61"/>
<stop offset="1" stop-color="#D13817"/>
</linearGradient>
<linearGradient id="paint6_linear" x1="240.182" y1="330.559" x2="247.452" y2="375.771" gradientUnits="userSpaceOnUse">
<stop stop-color="#F5E33E" stop-opacity="0.61"/>
<stop offset="1" stop-color="#D13817"/>
</linearGradient>
<linearGradient id="paint7_linear" x1="233.254" y1="305.133" x2="256.105" y2="425.887" gradientUnits="userSpaceOnUse">
<stop stop-color="#F5E33E" stop-opacity="0.61"/>
<stop offset="1" stop-color="#D13817"/>
</linearGradient>
<radialGradient id="paint8_radial" cx="0" cy="0" r="1" gradientUnits="userSpaceOnUse" gradientTransform="translate(268.763 169) rotate(90) scale(26 112.5)">
<stop offset="0.229167" stop-color="#A3590E"/>
<stop offset="0.848958" stop-color="#C38240"/>
</radialGradient>
<linearGradient id="paint9_linear" x1="268.763" y1="105" x2="268.763" y2="175" gradientUnits="userSpaceOnUse">
<stop stop-color="#C38240"/>
<stop offset="0.65625" stop-color="#C38240"/>
<stop offset="1" stop-color="#C38240" stop-opacity="0"/>
</linearGradient>
</defs>
</svg>
