<svg width="32" height="32" viewBox="0 0 32 32" fill="none" xmlns="http://www.w3.org/2000/svg">
<path d="M1.60069 16C1.60069 8.04863 8.04861 1.60071 16 1.60071C23.9514 1.60071 30.3993 8.04863 30.3993 16C30.3993 23.9514 23.9514 30.3993 16 30.3993C8.04861 30.3993 1.60069 23.9514 1.60069 16ZM16 29.1215C23.2465 29.1215 29.1215 23.2465 29.1215 16C29.1215 8.75349 23.2465 2.87849 16 2.87849C8.75347 2.87849 2.87847 8.75349 2.87847 16C2.87847 23.2465 8.75347 29.1215 16 29.1215Z" fill="white"/>
<rect x="9.28249" y="22.9246" width="1" height="20" transform="rotate(-135 9.28249 22.9246)" fill="white"/>
<rect x="8.57538" y="8.78247" width="1" height="20" transform="rotate(-45 8.57538 8.78247)" fill="white"/>
</svg>
