<?xml version="1.0" encoding="UTF-8"?>
<svg xmlns="http://www.w3.org/2000/svg" xmlns:xlink="http://www.w3.org/1999/xlink" width="32pt" height="32pt" viewBox="0 0 36 36" version="1.1">
<g id="surface46859388">
<path style=" stroke:none;fill-rule:nonzero;fill:rgb(100%,100%,100%);fill-opacity:1;" d="M 1.800781 18 C 1.800781 9.054688 9.054688 1.800781 18 1.800781 C 26.945312 1.800781 34.199219 9.054688 34.199219 18 C 34.199219 26.945312 26.945312 34.199219 18 34.199219 C 9.054688 34.199219 1.800781 26.945312 1.800781 18 Z M 18 32.761719 C 26.152344 32.761719 32.761719 26.152344 32.761719 18 C 32.761719 9.847656 26.152344 3.238281 18 3.238281 C 9.847656 3.238281 3.238281 9.847656 3.238281 18 C 3.238281 26.152344 9.847656 32.761719 18 32.761719 Z M 18 32.761719 "/>
<path style=" stroke:none;fill-rule:nonzero;fill:rgb(100%,100%,100%);fill-opacity:1;" d="M 9.71875 11.101562 L 9.71875 12.480469 L 26.28125 12.480469 L 26.28125 11.101562 Z M 9.71875 17.308594 L 9.71875 18.691406 L 26.28125 18.691406 L 26.28125 17.308594 Z M 9.71875 23.519531 L 9.71875 24.898438 L 26.28125 24.898438 L 26.28125 23.519531 Z M 9.71875 23.519531 "/>
</g>
</svg>
